<svg xmlns="http://www.w3.org/2000/svg" viewBox="0 0 720 460" font-family="system-ui,Segoe UI,Helvetica,Arial,sans-serif">
<rect width="720" height="460" fill="#ffffff"/>
<text x="70" y="24" font-size="16" font-weight="600" fill="#1d3557">Spatial index query latency vs zone count (log–log)</text>
<line x1="70" y1="400.0" x2="570" y2="400.0" stroke="#e6e6e6"/>
<text x="62" y="404.0" font-size="11" fill="#666" text-anchor="end">0.01 µs</text>
<line x1="70" y1="328.0" x2="570" y2="328.0" stroke="#e6e6e6"/>
<text x="62" y="332.0" font-size="11" fill="#666" text-anchor="end">0.1 µs</text>
<line x1="70" y1="256.0" x2="570" y2="256.0" stroke="#e6e6e6"/>
<text x="62" y="260.0" font-size="11" fill="#666" text-anchor="end">1 µs</text>
<line x1="70" y1="184.0" x2="570" y2="184.0" stroke="#e6e6e6"/>
<text x="62" y="188.0" font-size="11" fill="#666" text-anchor="end">10 µs</text>
<line x1="70" y1="112.0" x2="570" y2="112.0" stroke="#e6e6e6"/>
<text x="62" y="116.0" font-size="11" fill="#666" text-anchor="end">100 µs</text>
<line x1="70" y1="40.0" x2="570" y2="40.0" stroke="#e6e6e6"/>
<text x="62" y="44.0" font-size="11" fill="#666" text-anchor="end">1000 µs</text>
<line x1="70.0" y1="40" x2="70.0" y2="400" stroke="#f2f2f2"/>
<text x="70.0" y="418.0" font-size="11" fill="#666" text-anchor="middle">10</text>
<line x1="195.0" y1="40" x2="195.0" y2="400" stroke="#f2f2f2"/>
<text x="195.0" y="418.0" font-size="11" fill="#666" text-anchor="middle">100</text>
<line x1="320.0" y1="40" x2="320.0" y2="400" stroke="#f2f2f2"/>
<text x="320.0" y="418.0" font-size="11" fill="#666" text-anchor="middle">1,000</text>
<line x1="407.4" y1="40" x2="407.4" y2="400" stroke="#f2f2f2"/>
<text x="407.4" y="418.0" font-size="11" fill="#666" text-anchor="middle">5,000</text>
<line x1="445.0" y1="40" x2="445.0" y2="400" stroke="#f2f2f2"/>
<text x="445.0" y="418.0" font-size="11" fill="#666" text-anchor="middle">10,000</text>
<line x1="482.6" y1="40" x2="482.6" y2="400" stroke="#f2f2f2"/>
<text x="482.6" y="418.0" font-size="11" fill="#666" text-anchor="middle">20,000</text>
<line x1="532.4" y1="40" x2="532.4" y2="400" stroke="#f2f2f2"/>
<text x="532.4" y="418.0" font-size="11" fill="#666" text-anchor="middle">50,000</text>
<line x1="570.0" y1="40" x2="570.0" y2="400" stroke="#f2f2f2"/>
<text x="570.0" y="418.0" font-size="11" fill="#666" text-anchor="middle">100,000</text>
<text x="320" y="446" font-size="12" fill="#333" text-anchor="middle">number of hazard zones</text>
<rect x="70" y="40" width="500" height="360" fill="none" stroke="#333"/>
<polyline points="70.0,337.6 195.0,300.8 320.0,224.4 407.4,181.1 445.0,158.1 482.6,134.1 532.4,106.6 570.0,84.1" fill="none" stroke="#d1495b" stroke-width="2.5"/>
<circle cx="70.0" cy="337.6" r="3" fill="#d1495b"/>
<circle cx="195.0" cy="300.8" r="3" fill="#d1495b"/>
<circle cx="320.0" cy="224.4" r="3" fill="#d1495b"/>
<circle cx="407.4" cy="181.1" r="3" fill="#d1495b"/>
<circle cx="445.0" cy="158.1" r="3" fill="#d1495b"/>
<circle cx="482.6" cy="134.1" r="3" fill="#d1495b"/>
<circle cx="532.4" cy="106.6" r="3" fill="#d1495b"/>
<circle cx="570.0" cy="84.1" r="3" fill="#d1495b"/>
<rect x="586" y="43" width="14" height="4" fill="#d1495b"/>
<text x="604" y="48" font-size="12" fill="#222">brute force</text>
<polyline points="70.0,338.7 195.0,331.6 320.0,329.0 407.4,293.0 445.0,269.8 482.6,246.7 532.4,217.3 570.0,195.4" fill="none" stroke="#2a9d8f" stroke-width="2.5"/>
<circle cx="70.0" cy="338.7" r="3" fill="#2a9d8f"/>
<circle cx="195.0" cy="331.6" r="3" fill="#2a9d8f"/>
<circle cx="320.0" cy="329.0" r="3" fill="#2a9d8f"/>
<circle cx="407.4" cy="293.0" r="3" fill="#2a9d8f"/>
<circle cx="445.0" cy="269.8" r="3" fill="#2a9d8f"/>
<circle cx="482.6" cy="246.7" r="3" fill="#2a9d8f"/>
<circle cx="532.4" cy="217.3" r="3" fill="#2a9d8f"/>
<circle cx="570.0" cy="195.4" r="3" fill="#2a9d8f"/>
<rect x="586" y="65" width="14" height="4" fill="#2a9d8f"/>
<text x="604" y="70" font-size="12" fill="#222">quadtree</text>
<polyline points="70.0,341.9 195.0,333.8 320.0,325.2 407.4,303.8 445.0,293.6 482.6,284.5 532.4,268.4 570.0,256.1" fill="none" stroke="#3d5a80" stroke-width="2.5"/>
<circle cx="70.0" cy="341.9" r="3" fill="#3d5a80"/>
<circle cx="195.0" cy="333.8" r="3" fill="#3d5a80"/>
<circle cx="320.0" cy="325.2" r="3" fill="#3d5a80"/>
<circle cx="407.4" cy="303.8" r="3" fill="#3d5a80"/>
<circle cx="445.0" cy="293.6" r="3" fill="#3d5a80"/>
<circle cx="482.6" cy="284.5" r="3" fill="#3d5a80"/>
<circle cx="532.4" cy="268.4" r="3" fill="#3d5a80"/>
<circle cx="570.0" cy="256.1" r="3" fill="#3d5a80"/>
<rect x="586" y="87" width="14" height="4" fill="#3d5a80"/>
<text x="604" y="92" font-size="12" fill="#222">R-tree (STR)</text>
<text x="586" y="126" font-size="10" fill="#888">median of 7, ratio to</text>
<text x="586" y="140" font-size="10" fill="#888">our own brute force</text>
</svg>